<?xml version="1.0" standalone="no"?>
<!DOCTYPE svg PUBLIC "-//W3C//DTD SVG 20010904//EN"
 "http://www.w3.org/TR/2001/REC-SVG-20010904/DTD/svg10.dtd">
<svg version="1.0" xmlns="http://www.w3.org/2000/svg"
 width="111.000000pt" height="111.000000pt" viewBox="0 0 111.000000 111.000000"
 preserveAspectRatio="xMidYMid meet">
<metadata>
Created by potrace 1.14, written by Peter Selinger 2001-2017
</metadata>
<g transform="translate(0.000000,111.000000) scale(0.100000,-0.100000)"
fill="#000000" stroke="none">
<path d="M460 892 c-23 -12 -43 -35 -60 -68 l-25 -49 -76 0 -77 0 -103 -70
c-56 -38 -106 -73 -111 -76 -5 -3 19 -68 52 -145 l60 -139 33 3 c19 1 114 -25
239 -67 163 -54 216 -68 255 -66 44 3 76 15 338 129 17 7 45 19 63 26 63 25
81 84 37 124 -21 20 -31 22 -60 16 -31 -7 -33 -6 -25 14 12 32 11 39 -12 63
-20 22 -52 23 -72 3 -5 -5 -26 -40 -46 -77 -32 -61 -40 -69 -83 -85 -64 -24
-93 -25 -152 -6 -86 28 -219 79 -231 89 -21 17 -23 48 -4 72 l19 22 53 -52
c29 -28 78 -67 109 -86 l56 -36 49 29 c74 43 156 121 188 180 66 120 0 265
-121 265 -38 0 -49 -5 -74 -33 -16 -18 -29 -41 -29 -52 0 -11 -4 -20 -10 -20
-5 0 -10 9 -10 20 0 10 -15 34 -33 52 -40 40 -86 47 -137 20z"/>
</g>
</svg>
