<?xml version="1.0" standalone="no"?>
<!DOCTYPE svg PUBLIC "-//W3C//DTD SVG 20010904//EN"
 "http://www.w3.org/TR/2001/REC-SVG-20010904/DTD/svg10.dtd">
<svg version="1.0" xmlns="http://www.w3.org/2000/svg"
 width="99.000000pt" height="46.000000pt" viewBox="0 0 99.000000 46.000000"
 preserveAspectRatio="xMidYMid meet">
<metadata>
Created by potrace 1.16, written by Peter Selinger 2001-2019
</metadata>
<g transform="translate(0.000000,46.000000) scale(0.100000,-0.100000)"
fill="#000000" stroke="none">
<path d="M138 451 c16 -10 6 -132 -12 -143 -6 -4 5 -8 24 -8 24 0 31 3 21 9
-10 7 -12 21 -6 57 l8 49 19 -57 c11 -32 24 -58 28 -58 5 0 18 28 28 62 l20
63 7 -54 c5 -40 4 -56 -6 -62 -9 -5 25 -9 84 -9 79 0 99 3 104 15 8 23 -7 33
-18 12 -6 -9 -21 -17 -34 -17 -22 0 -25 5 -25 35 0 24 5 35 15 35 8 0 15 -4
15 -10 0 -5 5 -10 10 -10 6 0 10 11 10 25 0 14 -4 25 -10 25 -5 0 -10 -4 -10
-10 0 -5 -7 -10 -15 -10 -10 0 -15 10 -15 30 0 22 5 30 18 30 10 0 23 -5 30
-12 13 -13 27 -5 17 11 -3 6 -27 11 -53 11 l-47 0 3 -76 c4 -74 3 -76 -20 -72
-20 3 -24 10 -31 67 -6 49 -5 66 5 73 9 6 3 8 -17 6 -26 -3 -31 -9 -46 -57
-17 -59 -20 -58 -39 12 -12 43 -15 47 -44 47 -20 0 -27 -3 -18 -9z"/>
<path d="M488 389 c3 -52 0 -74 -10 -80 -8 -5 9 -9 44 -9 50 0 59 3 78 28 17
21 21 36 17 67 -7 49 -28 65 -86 65 l-46 0 3 -71z"/>
<path d="M728 159 c3 -52 0 -74 -10 -80 -8 -5 9 -9 44 -9 50 0 59 3 78 28 17
21 21 36 17 67 -7 49 -28 65 -86 65 l-46 0 3 -71z"/>
</g>
</svg>
